<?xml version="1.0" ?><!DOCTYPE svg  PUBLIC '-//W3C//DTD SVG 1.1//EN'  'http://www.w3.org/Graphics/SVG/1.1/DTD/svg11.dtd'><svg enable-background="new 0 0 800 800" height="800px" id="Layer_1" version="1.1" viewBox="0 0 800 800" width="800px" xml:space="preserve" xmlns="http://www.w3.org/2000/svg" xmlns:xlink="http://www.w3.org/1999/xlink"><g><path d="M768.603,127.178c0.668-33.175-14.215-53.32-23.958-63.741l-0.306-0.325   c-1.03-1.108-2.024-2.102-2.903-2.98c-0.897-0.888-1.872-1.872-2.999-2.914l-0.306-0.305   c-10.432-9.744-30.586-24.625-63.756-23.967c-63.159,1.252-147.58,58.727-250.972,170.677l-221.686-7.775   c0,0-61.114-3.572-97.316,12.198c-36.223,15.771-70.48,33.643-72.582,40.998c-1.156,4.041-0.105,8.339,3.764,12.198   c2.578,2.579,6.399,4.977,11.663,6.973c0,0,217.841,77.095,250.394,88.605c-104.959,148.65-81.364,200.853-73.913,211.389   c0.553,0.792,1.185,1.537,1.872,2.226l5.521,5.521c0.688,0.688,1.433,1.318,2.235,1.882c10.507,7.422,62.451,30.929,210.165-73.064   c10.316,29.87,86.695,246.426,86.695,246.426c2.025,5.264,4.413,9.093,6.992,11.672c3.858,3.869,8.157,4.92,12.188,3.755   c7.355-2.102,25.236-36.366,40.997-72.578c15.762-36.212,12.208-97.306,12.208-97.306l-7.584-215.927   C708.863,276.201,767.341,190.891,768.603,127.178z M96.396,249.254c6.438-3.047,13.659-6.333,21.664-9.82   c20.767-9.036,61.114-10.564,81.689-9.409c0.229,0.009,0.516,0.029,0.765,0.038l193.029,6.772   c-29.918,34.053-55.098,64.906-76.017,92.685c-3-2.427-6.267-4.509-9.992-5.827L96.396,249.254z M559.005,680.39   c-3.478,8.005-6.763,15.226-9.819,21.654l-74.431-211.141c-0.821-2.311-2.005-4.403-3.324-6.419   c27.147-20.422,57.218-44.865,90.383-73.885l6.572,187.336c0,0.267,0.019,0.524,0.037,0.803   C569.569,619.265,568.041,659.623,559.005,680.39z M557.228,368.98C338.16,565.229,263.1,552.572,253.165,549.602l-1.203-1.213   c-2.98-9.924-15.627-84.986,180.63-304.054C562.501,99.305,636.148,67.945,675.063,67.172c20.637-0.401,32.501,8.014,39.684,14.749   l0.917,0.907c0.975,0.956,2.121,2.092,3.057,3.057l0.918,0.936c6.724,7.183,15.148,19.038,14.747,39.67   C733.603,165.406,702.253,239.062,557.228,368.98z" fill="#4D4D4D"/><path d="M226.075,409.204c-13.181-13.191-77.582,17.739-106.334,31.045c-7.966,3.688-15.703,10.775-19.199,17.882   c-8.998,18.235-23.002,52.708-8.788,66.921c2.426,2.446,5.693,4.28,9.953,5.351l86.963,20.175c0,0,3.209-53.914,35.629-120.721   C229.477,419.178,229.534,412.672,226.075,409.204z M160.701,508.938l-39.642-9.198c1.395-5.77,4.299-14.452,9.953-25.981   c0.631-0.764,2.082-1.977,3.114-2.444l4.681-2.17c14.997-6.963,27.931-12.684,38.781-17.136   C169.432,473.758,164.14,493.254,160.701,508.938z" fill="#4D4D4D"/><path d="M368.593,574.15c-66.808,32.41-120.719,35.62-120.719,35.62l20.174,86.972   c1.069,4.251,2.903,7.509,5.33,9.944c14.232,14.223,48.715,0.21,66.922-8.788c7.125-3.486,14.213-11.225,17.9-19.199   c13.297-28.753,44.246-93.134,31.045-106.325C385.787,568.906,379.272,568.973,368.593,574.15z M329.315,659.633l-2.178,4.699   c-0.478,1.013-1.683,2.465-2.445,3.104c-11.539,5.646-20.214,8.549-25.982,9.944l-9.209-39.623   c15.705-3.447,35.191-8.75,56.931-16.897C341.98,631.712,336.269,644.646,329.315,659.633z" fill="#4D4D4D"/></g></svg>